#!OML:ASF E:\Steps\Project 1\Capture day 1\Session 2\Subject.ASF
:FULLY-SPECIFIED
:DEGREES
16
root 9.09511 16.2729 31.6618 -156.423 -2.50558 179.715
lowerback -27.0069 -1.26773 -4.76833
upperback -1.25773 -0.677809 -0.203844
thorax 13.7495 -0.817092 2.20881
lowerneck 0.00545867 -0.181453 -4.0408
upperneck 6.61505 -0.828368 6.96984
head 2.16765 -0.462713 2.95909
rclavicle -7.90169e-015 -9.14409e-015
rhumerus -37.5034 -21.125 -75.7472
rradius 27.9102
rwrist 2.51833
rhand -4.72791 -56.7765
rfingers 7.12502
rthumb 21.0548 -85.6535
lclavicle -7.90169e-015 -9.14409e-015
lhumerus -29.8896 15.6139 76.0991
lradius 14.5091
lwrist -16.9444
lhand -18.7126 -12.5212
lfingers 7.12502
lthumb 7.58259 17.3229
rfemur -22.6898 7.7384 20.4693
rtibia 10.3582
rfoot -20.4868 -7.28095
rtoes -30.4921
lfemur -24.2778 -9.52947 -18.1673
ltibia 11.9619
lfoot -9.56531 0.909982
ltoes -28.8967
17
root 9.09578 16.276 31.6644 -156.463 -2.62211 179.681
lowerback -26.946 -1.29964 -4.80076
upperback -1.24078 -0.707136 -0.213165
thorax 13.739 -0.830292 2.20627
lowerneck 0.0357914 -0.194781 -4.05657
upperneck 6.44252 -0.830905 6.98741
head 2.10586 -0.462564 2.9658
rclavicle 3.37934e-015 1.35174e-014
rhumerus -37.437 -21.0849 -75.8233
rradius 27.91
rwrist 2.44127
rhand -4.82416 -56.7742
rfingers 7.12502
rthumb 20.9624 -85.6614
lclavicle 3.37934e-015 1.35174e-014
lhumerus -29.6917 15.0636 76.477
lradius 14.7491
lwrist -15.8765
lhand -19.2363 -12.7033
lfingers 7.12502
lthumb 7.07702 17.1584
rfemur -22.6349 7.81659 20.4265
rtibia 10.3507
rfoot -20.4774 -7.47065
rtoes -30.4761
lfemur -24.2647 -9.52754 -18.1964
ltibia 11.9742
lfoot -9.50357 0.80729
ltoes -29.6719
18
root 9.09252 16.2785 31.6658 -156.526 -2.73375 179.668
lowerback -26.8861 -1.30737 -4.75164
upperback -1.21746 -0.726106 -0.24065
thorax 13.7347 -0.832649 2.1397
lowerneck 0.0512879 -0.208649 -4.04467
upperneck 6.26595 -0.83338 6.99577
head 2.04513 -0.461636 2.96421
rclavicle 4.02539e-015 1.94809e-014
rhumerus -37.377 -20.942 -75.9934
rradius 27.9946
rwrist 2.43633
rhand -5.01283 -57.2629
rfingers 7.12502
rthumb 20.7811 -86.1701
lclavicle 4.02539e-015 1.94809e-014
lhumerus -29.5285 14.3849 76.8752
lradius 15.1079
lwrist -14.8523
lhand -19.6157 -12.7106
lfingers 7.12502
lthumb 6.71083 17.163
rfemur -22.5836 7.88756 20.3856
rtibia 10.3893
rfoot -20.5054 -7.58358
rtoes -30.3144
lfemur -24.2091 -9.65444 -18.1869
ltibia 11.9475
lfoot -9.4967 0.843414
ltoes -29.9127
19
root 9.09023 16.2787 31.6657 -156.592 -2.76295 179.697
lowerback -26.8857 -1.29123 -4.73303
upperback -1.17171 -0.7021 -0.242442
thorax 13.787 -0.81943 2.13614
lowerneck 0.0624401 -0.21927 -4.00491
upperneck 6.10681 -0.832583 6.98549
head 1.9903 -0.458974 2.9513
rclavicle 7.00716e-015 2.38542e-014
rhumerus -37.2452 -20.8644 -76.1342
rradius 28.0472
rwrist 2.28183
rhand -5.22106 -57.5266
rfingers 7.12502
rthumb 20.581 -86.4556
lclavicle 7.00716e-015 2.38542e-014
lhumerus -29.2557 14.4015 76.9949
lradius 15.1209
lwrist -14.8312
lhand -19.6101 -12.8689
lfingers 7.12502
lthumb 6.71625 17.0045
rfemur -22.498 8.07839 20.3826
rtibia 10.3321
rfoot -20.4669 -7.77351
rtoes -30.3942
lfemur -24.1367 -9.71624 -18.1469
ltibia 11.9333
lfoot -9.55079 0.851544
ltoes -29.4103
20
root 9.08968 16.2761 31.666 -156.57 -2.80178 179.759
lowerback -26.9739 -1.25772 -4.7008
upperback -1.16025 -0.663235 -0.239829
thorax 13.8455 -0.801355 2.13446
lowerneck 0.0906201 -0.234919 -3.96548
upperneck 5.94457 -0.839972 6.98315
head 1.93211 -0.460927 2.94098
rclavicle 7.45443e-015 3.22031e-014
rhumerus -37.1552 -20.8498 -76.2386
rradius 28.1084
rwrist 2.12211
rhand -5.21181 -57.2583
rfingers 7.12502
rthumb 20.5899 -86.1863
lclavicle 7.45443e-015 3.22031e-014
lhumerus -28.8775 14.6478 77.0074
lradius 14.8535
lwrist -15.0059
lhand -19.5955 -13.2212
lfingers 7.12502
lthumb 6.73033 16.6519
rfemur -22.493 8.17998 20.4233
rtibia 10.2275
rfoot -20.3552 -7.89029
rtoes -30.1894
lfemur -24.1615 -9.78677 -18.0344
ltibia 11.9122
lfoot -9.53543 0.870893
ltoes -28.8996
21
root 9.08904 16.2758 31.6667 -156.621 -2.88076 179.816
lowerback -26.945 -1.23394 -4.63322
upperback -1.15407 -0.65216 -0.236019
thorax 13.8357 -0.790916 2.10458
lowerneck 0.142293 -0.246009 -3.98673
upperneck 5.77744 -0.841182 6.99598
head 1.86864 -0.461299 2.94731
rclavicle -1.98785e-015 -4.77083e-015
rhumerus -37.0874 -20.862 -76.3178
rradius 28.1332
rwrist 2.02791
rhand -5.18044 -56.7811
rfingers 7.12502
rthumb 20.62 -85.7059
lclavicle -1.98785e-015 -4.77083e-015
lhumerus -28.7707 13.5879 77.5616
lradius 15.3486
lwrist -13.7031
lhand -19.7541 -12.9442
lfingers 7.12502
lthumb 6.57719 16.9337
rfemur -22.4203 7.99527 20.5296
rtibia 10.1924
rfoot -20.3259 -7.756
rtoes -29.6402
lfemur -24.0835 -9.88195 -17.9338
ltibia 11.8287
lfoot -9.51549 0.936969
ltoes -28.9022
22
root 9.08725 16.2765 31.6676 -156.658 -2.94493 179.821
lowerback -26.9042 -1.24593 -4.62243
upperback -1.17187 -0.676686 -0.222539
thorax 13.7941 -0.801076 2.10508
lowerneck 0.244685 -0.248295 -4.01478
upperneck 5.60935 -0.832693 7.00167
head 1.79525 -0.458566 2.95244
rclavicle -1.98785e-016 -2.82274e-014
rhumerus -36.9982 -20.8103 -76.3877
rradius 28.0999
rwrist 1.87694
rhand -5.42362 -56.7164
rfingers 7.12502
rthumb 20.3864 -85.6663
lclavicle -1.98785e-016 -2.82274e-014
lhumerus -28.9423 11.8997 78.3441
lradius 16.4004
lwrist -11.7341
lhand -19.7076 -12.5995
lfingers 7.12502
lthumb 6.62209 17.2769
rfemur -22.3984 7.82782 20.573
rtibia 10.2344
rfoot -20.3841 -7.65381
rtoes -29.617
lfemur -24.0447 -9.94398 -17.9183
ltibia 11.8001
lfoot -9.56283 0.976602
ltoes -29.2174
23
root 9.08506 16.2768 31.6676 -156.693 -2.99966 179.829
lowerback -26.8991 -1.2514 -4.59684
upperback -1.1601 -0.688752 -0.229239
thorax 13.8059 -0.804122 2.07807
lowerneck 0.291966 -0.255964 -4.00967
upperneck 5.44431 -0.830219 7.00841
head 1.73295 -0.456898 2.95193
rclavicle -2.98177e-016 -2.50469e-014
rhumerus -36.8978 -20.7397 -76.4863
rradius 28.0861
rwrist 1.84338
rhand -5.56388 -56.9703
rfingers 7.12502
rthumb 20.2516 -85.9346
lclavicle -2.98177e-016 -2.50469e-014
lhumerus -28.8955 10.9106 78.8021
lradius 17.0007
lwrist -10.551
lhand -19.6921 -12.6239
lfingers 7.12502
lthumb 6.63707 17.2521
rfemur -22.3512 7.92193 20.5749
rtibia 10.2585
rfoot -20.4209 -7.762
rtoes -30.0602
lfemur -24.0287 -9.95829 -17.9182
ltibia 11.8408
lfoot -9.55028 1.02522
ltoes -29.7754
24
root 9.08332 16.2759 31.6681 -156.694 -3.06811 179.852
lowerback -26.9389 -1.25006 -4.58387
upperback -1.13885 -0.68709 -0.218514
thorax 13.8529 -0.803126 2.08325
lowerneck 0.296974 -0.258757 -4.03972
upperneck 5.28018 -0.817789 7.01516
head 1.67837 -0.449436 2.95846
rclavicle -1.59028e-015 7.95139e-016
rhumerus -36.8125 -20.7424 -76.5085
rradius 28.1154
rwrist 1.91187
rhand -5.38779 -56.9842
rfingers 7.12502
rthumb 20.4208 -85.9304
lclavicle -1.59028e-015 7.95139e-016
lhumerus -28.6893 10.4675 79.1107
lradius 17.2747
lwrist -10.0653
lhand -19.8542 -12.7383
lfingers 7.12502
lthumb 6.48052 17.1425
rfemur -22.3054 8.09072 20.5805
rtibia 10.2125
rfoot -20.4122 -7.94479
rtoes -30.155
lfemur -24.0735 -9.94945 -17.8873
ltibia 11.913
lfoot -9.53739 1.03984
ltoes -30.1272
25
root 9.0816 16.2761 31.6686 -156.695 -3.14115 179.845
lowerback -26.9489 -1.258 -4.64177
upperback -1.18511 -0.6911 -0.185421
thorax 13.8045 -0.810978 2.15329
lowerneck 0.419371 -0.252134 -4.10093
upperneck 5.13775 -0.80034 7.02441
head 1.60992 -0.443426 2.97158
rclavicle -5.41688e-015 2.38542e-015
rhumerus -36.8649 -20.6547 -76.4864
rradius 28.2293
rwrist 1.84458
rhand -5.50903 -57.0012
rfingers 7.12502
rthumb 20.3043 -85.9599
lclavicle -5.41688e-015 2.38542e-015
lhumerus -28.6683 10.094 79.3988
lradius 17.6308
lwrist -9.74342
lhand -19.8314 -12.7019
lfingers 7.12502
lthumb 6.50262 17.1783
rfemur -22.2524 8.52963 20.5147
rtibia 10.1411
rfoot -20.4752 -8.41383
rtoes -30.001
lfemur -24.1078 -9.98344 -17.8764
ltibia 11.9316
lfoot -9.50835 0.89668
ltoes -29.6916
26
root 9.07986 16.2776 31.6681 -156.69 -3.17792 179.731
lowerback -26.9432 -1.29569 -4.76382
upperback -1.24605 -0.712202 -0.203121
thorax 13.7314 -0.829203 2.19503
lowerneck 0.568643 -0.250065 -4.15105
upperneck 4.95846 -0.788306 7.04019
head 1.52518 -0.440488 2.98443
rclavicle 4.37326e-015 5.1684e-015
rhumerus -36.892 -20.3424 -76.6281
rradius 28.3818
rwrist 1.56829
rhand -5.86353 -56.7838
rfingers 7.12502
rthumb 19.9635 -85.7783
lclavicle 4.37326e-015 5.1684e-015
lhumerus -28.736 9.67606 79.6391
lradius 18.1027
lwrist -9.33436
lhand -19.7566 -12.4126
lfingers 7.12502
lthumb 6.57474 17.4653
rfemur -22.2147 8.94383 20.3143
rtibia 10.1017
rfoot -20.5219 -8.86648
rtoes -29.99
lfemur -24.1132 -10.042 -18.0081
ltibia 11.9121
lfoot -9.4296 0.750069
ltoes -29.2412
27
root 9.07712 16.2769 31.6685 -156.609 -3.25378 179.611
lowerback -26.9828 -1.34109 -4.87464
upperback -1.30445 -0.743286 -0.237034
thorax 13.6866 -0.851558 2.20718
lowerneck 0.610735 -0.258804 -4.13903
upperneck 4.78932 -0.786732 7.03845
head 1.46286 -0.439235 2.97998
rclavicle 4.42296e-015 -2.62396e-014
rhumerus -36.8463 -19.943 -76.8664
rradius 28.5519
rwrist 1.1045
rhand -6.12229 -56.5966
rfingers 7.12502
rthumb 19.7148 -85.6169
lclavicle 4.42296e-015 -2.62396e-014
lhumerus -28.7466 9.20039 79.9039
lradius 18.5962
lwrist -8.83742
lhand -19.6346 -12.7556
lfingers 7.12502
lthumb 6.69259 17.1187
rfemur -22.2903 8.87977 20.1427
rtibia 10.088
rfoot -20.4031 -9.02704
rtoes -30.3993
lfemur -24.2198 -10.189 -18.1188
ltibia 11.9432
lfoot -9.41803 0.834925
ltoes -29.7856
28
root 9.07289 16.2794 31.6673 -156.744 -3.31568 179.599
lowerback -26.8376 -1.32659 -4.90472
upperback -1.30237 -0.719128 -0.232291
thorax 13.6086 -0.839179 2.24107
lowerneck 0.636915 -0.278459 -4.09465
upperneck 4.62443 -0.799772 7.02915
head 1.40541 -0.444614 2.96685
rclavicle -1.3418e-015 2.22639e-014
rhumerus -36.852 -19.6348 -77.0193
rradius 28.7882
rwrist 0.709536
rhand -6.13844 -57.0257
rfingers 7.12502
rthumb 19.6993 -86.0475
lclavicle -1.3418e-015 2.22639e-014
lhumerus -28.7109 8.68944 80.223
lradius 19.0741
lwrist -8.30004
lhand -19.5469 -11.9663
lfingers 7.12502
lthumb 6.77725 17.9053
rfemur -22.098 8.98406 20.1105
rtibia 10.0241
rfoot -20.2661 -9.30442
rtoes -30.7874
lfemur -24.0447 -10.3257 -18.1428
ltibia 11.9099
lfoot -9.42294 0.965727
ltoes -30.5675
29
root 9.06683 16.2782 31.6647 -156.788 -3.339 179.606
lowerback -26.8661 -1.29987 -4.88851
upperback -1.26952 -0.6839 -0.214918
thorax 13.6604 -0.822577 2.26497
lowerneck 0.631141 -0.291539 -4.0738
upperneck 4.4683 -0.80293 7.02349
head 1.35616 -0.444552 2.95975
rclavicle 5.61567e-015 1.19271e-015
rhumerus -36.7925 -19.4928 -77.0892
rradius 29.0191
rwrist 0.715501
rhand -5.73509 -57.4956
rfingers 7.12502
rthumb 20.087 -86.4772
lclavicle 5.61567e-015 1.19271e-015
lhumerus -28.5697 8.0993 80.6054
lradius 19.5385
lwrist -7.72447
lhand -19.7121 -11.7617
lfingers 7.12502
lthumb 6.61778 18.1149
rfemur -22.0177 9.15656 20.0369
rtibia 9.98059
rfoot -20.2994 -9.43915
rtoes -30.0232
lfemur -23.9613 -10.5868 -18.1054
ltibia 11.8309
lfoot -9.38205 1.11097
ltoes -29.8063
